<?xml version="1.0" encoding="UTF-8"?>
<svg id="Layer_1" data-name="Layer 1" xmlns="http://www.w3.org/2000/svg" viewBox="0 0 384 384">
  <path class="cls-1" d="m192,0C85.96,0,0,85.96,0,192s85.96,192,192,192,192-85.96,192-192S298.04,0,192,0Zm106.06,252.8c12.49,12.5,12.49,32.76,0,45.26-6.25,6.24-14.44,9.37-22.63,9.37s-16.38-3.13-22.63-9.37l-60.8-60.8-60.8,60.8c-6.25,6.24-14.44,9.37-22.63,9.37s-16.38-3.12-22.63-9.37c-12.49-12.5-12.49-32.76.01-45.26l60.8-60.8-60.8-60.8c-12.5-12.5-12.5-32.76-.01-45.26,12.5-12.49,32.76-12.49,45.26,0l60.8,60.8,60.8-60.8c12.5-12.49,32.76-12.49,45.26,0,12.49,12.5,12.49,32.76,0,45.26l-60.8,60.8,60.8,60.8Z"/>
</svg>