<?xml version="1.0" encoding="UTF-8"?>
<svg id="Layer_1" data-name="Layer 1" xmlns="http://www.w3.org/2000/svg" viewBox="0 0 50 50">
  <defs>
    <style>
      .cls-1 {
        stroke-width: 0px;
      }
    </style>
  </defs>
  <path class="cls-1" d="m49.29,14.87s.01-.01.02-.02c.06-.07.12-.15.17-.23,0-.01.01-.02.02-.03.05-.08.09-.15.14-.23,0-.01.01-.02.02-.03.04-.08.08-.16.11-.25,0,0,0-.02.01-.03.03-.09.06-.17.09-.26,0,0,0-.01,0-.02.03-.09.05-.18.07-.27,0,0,0-.01,0-.02.02-.09.03-.19.04-.28,0,0,0,0,0-.01,0-.1.01-.19.01-.29s0-.19-.01-.29c0,0,0,0,0-.01,0-.1-.02-.19-.04-.28,0,0,0-.01,0-.02-.02-.09-.04-.18-.07-.27,0,0,0-.01,0-.02-.03-.09-.06-.18-.09-.26,0,0,0-.02-.01-.03-.03-.08-.07-.17-.11-.25,0-.01-.01-.02-.02-.03-.04-.08-.09-.16-.14-.23,0-.01-.01-.02-.02-.03-.05-.08-.11-.15-.17-.23,0,0-.01-.01-.02-.02-.07-.08-.14-.16-.21-.23,0,0,0,0,0,0L39.33.92c-1.22-1.22-3.2-1.22-4.43,0-1.22,1.22-1.22,3.2,0,4.43l4.41,4.41H3.13c-1.73,0-3.13,1.4-3.13,3.13s1.4,3.13,3.13,3.13h36.18l-4.41,4.41c-1.22,1.22-1.22,3.2,0,4.43.61.61,1.41.92,2.21.92s1.6-.31,2.21-.92l9.75-9.75s0,0,0,0c.07-.07.14-.15.21-.23Z"/>
  <path class="cls-1" d="m46.87,33.99H10.69l4.41-4.41c1.22-1.22,1.22-3.2,0-4.43-1.22-1.22-3.2-1.22-4.43,0L.92,34.9s0,0,0,0c-.07.07-.14.15-.21.23,0,0-.01.01-.02.02-.06.07-.12.15-.17.23,0,.01-.01.02-.02.03-.05.08-.09.15-.14.23,0,.01-.01.02-.02.03-.04.08-.08.16-.11.25,0,0,0,.02-.01.03-.03.09-.06.17-.09.26,0,0,0,.01,0,.02-.03.09-.05.18-.07.27,0,0,0,.01,0,.02-.02.09-.03.19-.04.28,0,0,0,0,0,.01,0,.1-.01.19-.01.29s0,.19.01.29c0,0,0,0,0,.01,0,.1.02.19.04.28,0,0,0,.01,0,.02.02.09.04.18.07.27,0,0,0,.01,0,.02.03.09.06.18.09.26,0,0,0,.02.01.03.03.08.07.17.11.25,0,.01.01.02.02.03.04.08.09.16.14.23,0,.01.01.02.02.03.05.08.11.15.17.23,0,0,.01.01.02.02.07.08.14.16.21.23,0,0,0,0,0,0l9.75,9.75c.61.61,1.41.92,2.21.92s1.6-.31,2.21-.92c1.22-1.22,1.22-3.2,0-4.43l-4.41-4.41h36.18c1.73,0,3.13-1.4,3.13-3.13s-1.4-3.13-3.13-3.13Z"/>
</svg>