<?xml version="1.0" encoding="UTF-8"?>
<svg id="Layer_1" data-name="Layer 1" xmlns="http://www.w3.org/2000/svg" viewBox="0 0 384 384">
  <defs>
    <style>
      .cls-1 {
        fill: none;
      }

      .cls-1, .cls-2 {
        stroke-width: 0px;
      }

      .cls-2 {
        fill: #ff593e;
      }
    </style>
  </defs>
  <path class="cls-2" d="M192,0C85.96,0,0,85.96,0,192s85.96,192,192,192,192-85.96,192-192S298.04,0,192,0ZM273.64,266.73c0,.99-.16,9.94-5.72,18.92-5.18,8.37-15.98,18.35-37.95,18.35h-75.94c-21.97,0-32.76-9.98-37.95-18.35-5.56-8.98-5.72-17.93-5.72-18.92v-114.17c0-5.8,4.7-10.5,10.5-10.5s10.5,4.7,10.5,10.5v114.07c.13,3.9,2.17,16.37,22.67,16.37h75.94c20.5,0,22.54-12.47,22.67-16.37v-114.07c0-5.8,4.71-10.5,10.5-10.5s10.5,4.7,10.5,10.5v114.17ZM160.5,251.13v-77.46c0-5.8,4.7-10.5,10.5-10.5s10.5,4.7,10.5,10.5v77.46c0,5.8-4.7,10.5-10.5,10.5s-10.5-4.7-10.5-10.5ZM202.5,251.13v-77.46c0-5.8,4.7-10.5,10.5-10.5s10.5,4.7,10.5,10.5v77.46c0,5.8-4.7,10.5-10.5,10.5s-10.5-4.7-10.5-10.5ZM273.22,132.03H110.79c-5.8,0-10.5-4.7-10.5-10.5s4.7-10.5,10.5-10.5h40.2v-20.53c0-5.8,4.7-10.5,10.5-10.5h61.03c5.79,0,10.5,4.7,10.5,10.5v20.53h40.2c5.79,0,10.5,4.7,10.5,10.5s-4.71,10.5-10.5,10.5ZM171.99,111.03h40.03v-10.03h-40.03v10.03Z"/>
  <rect class="cls-1" x="171.99" y="101" width="40.03" height="10.03"/>
</svg>